<?xml version="1.0" encoding="UTF-8" standalone="no"?>
<!DOCTYPE svg PUBLIC "-//W3C//DTD SVG 1.1//EN" "http://www.w3.org/Graphics/SVG/1.1/DTD/svg11.dtd">
<svg xmlns="http://www.w3.org/2000/svg" version="1.1" viewBox="0 390 1254 365" fill-rule="evenodd">
<path fill="#ffffff" d="
  M 882.25 605.12
  A 0.24 0.23 -53.7 0 0 882.29 605.43
  L 882.31 605.44
  A 0.19 0.18 41.6 0 0 882.57 605.43
  Q 894.57 593.03 909.43 580.44
  C 913.36 577.11 929.91 563.79 935.44 568.56
  C 937.65 570.45 936.59 576.00 935.52 578.02
  Q 929.92 588.56 925.08 598.31
  C 923.57 601.33 921.22 609.86 928.25 608.20
  Q 932.81 607.13 937.49 604.48
  Q 949.09 597.90 961.68 587.35
  Q 965.17 584.43 968.15 580.50
  Q 972.68 574.52 974.00 573.01
  C 975.70 571.04 977.74 569.42 980.28 570.41
  C 984.07 571.89 981.99 576.40 979.98 579.00
  Q 974.21 586.45 968.43 594.67
  Q 965.68 598.58 964.52 602.71
  A 1.23 1.23 0.0 0 0 965.55 604.26
  C 968.17 604.61 973.67 602.22 976.62 600.61
  Q 991.43 592.52 1005.03 581.02
  C 1006.75 579.56 1007.79 578.63 1008.89 576.92
  Q 1017.13 564.10 1021.18 557.66
  Q 1043.41 522.34 1068.88 490.38
  Q 1069.36 489.77 1075.85 482.61
  C 1078.56 479.62 1083.72 474.39 1088.07 474.10
  C 1095.23 473.61 1091.99 482.93 1090.12 486.39
  Q 1086.82 492.48 1081.75 499.51
  Q 1073.60 510.83 1066.02 520.03
  Q 1044.89 545.71 1026.59 565.77
  Q 1021.99 570.82 1018.32 576.50
  C 1007.05 593.97 996.91 611.49 988.80 631.54
  Q 986.08 638.29 986.37 645.20
  A 1.49 1.48 -9.3 0 0 988.27 646.56
  Q 992.30 645.39 995.81 642.81
  C 1010.02 632.37 1021.39 621.07 1034.30 607.55
  Q 1045.89 595.42 1057.71 583.03
  A 29.91 29.24 83.6 0 0 1061.27 578.47
  C 1071.23 562.73 1078.97 549.90 1089.13 536.49
  C 1091.41 533.47 1093.48 529.82 1095.73 526.72
  Q 1114.79 500.48 1119.76 494.26
  Q 1127.92 484.06 1135.74 477.00
  C 1138.21 474.77 1145.03 471.83 1146.36 476.67
  Q 1147.10 479.38 1145.67 482.45
  Q 1141.75 490.87 1138.56 495.09
  C 1130.17 506.21 1122.59 516.55 1112.94 527.94
  C 1109.84 531.60 1107.42 534.76 1103.93 538.67
  Q 1081.91 563.34 1079.38 566.13
  Q 1076.93 568.82 1073.39 573.88
  Q 1060.68 592.08 1050.14 611.75
  Q 1046.71 618.17 1044.09 624.29
  C 1039.54 634.95 1035.74 645.49 1035.60 657.25
  C 1035.44 671.35 1044.90 673.40 1056.34 670.35
  Q 1066.18 667.73 1076.03 662.44
  A 0.92 0.92 0.0 0 1 1077.32 662.93
  L 1077.34 662.96
  A 1.22 1.21 65.0 0 1 1076.81 664.44
  C 1067.76 669.61 1057.23 673.74 1046.53 674.36
  C 1037.79 674.87 1032.03 668.71 1030.90 660.41
  Q 1029.39 649.23 1033.19 635.70
  Q 1036.12 625.30 1038.41 620.65
  Q 1041.05 615.28 1042.17 612.51
  C 1044.79 606.01 1048.14 599.85 1050.69 595.56
  A 0.37 0.37 0.0 0 0 1050.10 595.12
  C 1034.28 612.62 1017.60 629.81 999.95 644.18
  C 996.36 647.11 989.98 651.32 985.51 650.42
  C 968.53 647.03 997.89 595.68 1002.59 587.99
  A 0.41 0.41 0.0 0 0 1001.98 587.45
  Q 990.65 596.63 977.95 603.69
  C 973.70 606.04 967.97 608.97 963.47 608.50
  C 955.11 607.60 958.46 597.04 960.89 592.69
  A 0.37 0.37 0.0 0 0 960.32 592.23
  Q 948.85 602.23 935.40 609.15
  C 929.43 612.23 918.35 614.79 918.79 603.98
  Q 918.88 601.74 920.98 596.71
  Q 923.22 591.35 929.14 580.38
  Q 931.23 576.50 932.16 572.56
  A 0.76 0.76 0.0 0 0 931.26 571.64
  C 925.89 572.78 920.76 576.40 916.51 579.77
  Q 899.84 593.02 884.75 609.26
  Q 874.78 619.99 863.09 633.08
  C 859.42 637.20 853.57 632.93 856.56 627.80
  Q 868.62 607.09 883.40 586.79
  A 0.35 0.35 0.0 0 0 882.91 586.30
  Q 874.78 592.17 866.61 598.60
  Q 836.59 622.22 806.98 643.65
  Q 799.83 648.82 796.68 650.95
  Q 789.95 655.52 786.43 658.37
  A 0.41 0.41 0.0 0 0 786.72 659.10
  C 792.70 658.62 800.11 659.08 808.43 658.96
  Q 862.64 658.22 912.00 660.66
  Q 943.86 662.24 974.83 666.09
  Q 997.78 668.94 1012.46 673.23
  C 1018.15 674.90 1028.90 678.29 1032.22 683.32
  A 1.07 0.84 68.3 0 1 1031.75 684.91
  Q 1031.67 684.91 1031.33 684.65
  C 1023.17 678.35 1011.51 674.98 1001.97 673.12
  Q 974.21 667.70 943.56 665.68
  Q 888.76 662.07 833.25 662.38
  Q 806.79 662.53 780.34 663.22
  A 4.61 4.52 -62.3 0 0 777.88 664.01
  C 764.21 673.29 749.88 681.65 734.15 687.91
  C 724.00 691.96 714.00 694.43 703.37 693.31
  C 688.88 691.78 678.68 681.72 676.24 667.18
  A 0.89 0.88 84.6 0 0 675.36 666.44
  Q 671.57 666.48 662.00 667.01
  Q 605.12 670.17 543.87 676.10
  Q 541.97 676.28 539.90 676.73
  A 1.06 1.05 6.2 0 0 539.16 677.32
  Q 534.45 687.53 533.88 696.23
  A 1.46 1.45 86.9 0 1 532.69 697.56
  C 524.42 699.07 530.21 682.23 531.46 678.78
  A 0.46 0.46 0.0 0 0 530.98 678.16
  Q 429.38 689.89 330.98 717.46
  C 326.79 718.63 317.73 721.42 315.12 719.82
  A 1.65 1.65 0.0 0 1 314.79 717.27
  C 318.51 713.40 325.75 710.18 329.88 708.62
  C 343.01 703.68 354.92 700.89 371.11 697.13
  C 392.83 692.10 418.65 687.59 435.79 684.86
  Q 451.15 682.42 476.59 678.96
  Q 505.21 675.07 532.31 672.91
  A 1.88 1.88 0.0 0 0 533.89 671.74
  C 536.62 665.02 539.78 656.79 542.84 651.06
  C 546.37 644.44 549.27 637.49 553.46 629.64
  Q 567.87 602.61 582.14 578.89
  A 0.26 0.25 -3.7 0 0 581.76 578.56
  Q 567.45 589.76 555.07 598.54
  Q 541.59 608.10 530.14 613.64
  C 518.52 619.27 509.54 613.84 513.64 600.46
  A 0.45 0.45 0.0 0 0 512.94 599.96
  C 502.83 607.45 491.74 615.28 480.97 620.69
  C 473.81 624.28 459.74 627.01 459.16 614.34
  C 458.73 605.07 463.23 596.84 468.13 589.44
  A 0.48 0.48 0.0 0 0 467.59 588.72
  C 461.31 590.76 451.29 591.36 445.76 586.94
  A 0.44 0.43 -56.2 0 0 445.11 587.07
  C 438.34 599.45 431.50 611.09 422.34 621.59
  Q 419.79 624.51 417.02 625.42
  C 411.65 627.17 410.26 621.91 410.91 617.82
  Q 412.25 609.39 414.01 604.75
  Q 418.18 593.74 418.66 592.34
  A 0.51 0.50 -1.5 0 0 417.99 591.71
  Q 417.89 591.75 417.35 592.35
  Q 405.26 605.74 392.09 621.10
  Q 386.55 627.55 382.34 631.57
  Q 380.79 633.04 378.04 633.26
  C 372.23 633.72 371.54 628.44 372.40 623.87
  C 373.22 619.54 376.29 614.43 377.54 611.29
  Q 379.25 606.97 384.40 598.17
  Q 391.86 585.40 398.46 575.31
  A 0.39 0.39 0.0 0 0 398.05 574.71
  C 370.46 580.29 343.27 589.73 317.69 601.23
  A 0.39 0.39 0.0 0 0 317.71 601.95
  Q 328.71 605.96 337.17 614.76
  Q 350.53 628.66 342.26 646.59
  C 340.03 651.43 337.08 656.06 333.23 660.30
  Q 325.90 668.38 324.08 669.85
  C 318.37 674.47 312.71 679.47 306.46 683.79
  Q 281.29 701.20 255.31 714.29
  C 233.46 725.30 211.11 735.13 187.85 742.86
  C 177.79 746.20 166.55 748.53 156.54 748.64
  C 151.98 748.69 145.90 746.85 143.59 742.36
  C 140.85 737.05 143.72 728.31 146.48 723.19
  Q 153.35 710.42 162.80 699.79
  Q 178.16 682.52 195.44 668.45
  C 212.45 654.60 231.73 641.28 251.13 630.19
  Q 277.73 614.99 301.04 604.53
  Q 301.82 604.17 302.03 603.91
  A 0.33 0.32 25.5 0 0 301.84 603.39
  C 268.39 596.54 236.83 600.88 200.78 604.86
  C 193.66 605.65 187.99 605.91 179.63 606.61
  Q 171.52 607.29 162.36 606.04
  C 153.38 604.81 144.33 602.93 139.85 594.20
  C 134.19 583.18 148.61 564.80 155.82 556.81
  Q 170.43 540.62 187.26 525.75
  Q 226.29 491.25 267.27 463.81
  Q 290.86 448.01 317.34 434.41
  Q 349.59 417.84 383.52 410.01
  C 392.82 407.86 402.38 407.09 411.19 407.17
  Q 417.80 407.22 424.74 409.69
  C 434.44 413.14 439.64 422.84 436.04 432.57
  C 431.55 444.72 424.13 453.02 415.00 462.50
  Q 401.45 476.58 386.72 489.72
  Q 361.27 512.42 336.21 535.35
  A 2.17 2.17 0.0 0 1 333.17 535.23
  L 333.13 535.19
  A 2.24 2.24 0.0 0 1 333.19 532.07
  Q 341.38 523.94 350.01 516.26
  C 371.15 497.43 396.82 475.69 415.31 456.07
  C 422.28 448.68 432.89 437.19 432.45 426.50
  C 431.83 411.07 408.25 411.98 397.99 413.74
  Q 384.84 415.99 374.60 419.39
  C 361.12 423.85 346.10 430.15 332.45 437.35
  Q 307.77 450.37 288.37 463.13
  C 268.72 476.05 252.17 488.35 234.97 501.66
  Q 224.80 509.53 219.51 513.88
  C 201.06 529.05 183.24 544.35 166.94 561.44
  Q 160.48 568.21 154.69 575.69
  C 151.61 579.69 148.19 585.22 148.37 590.41
  C 148.73 601.20 179.53 599.75 186.75 599.30
  Q 211.11 597.77 242.28 594.98
  Q 247.64 594.50 265.78 594.22
  Q 289.24 593.87 310.95 599.33
  A 1.89 1.86 -49.6 0 0 312.18 599.22
  Q 317.65 596.78 338.87 588.45
  Q 369.96 576.25 400.86 570.46
  A 1.65 1.63 14.0 0 0 401.84 569.88
  C 403.56 567.78 405.05 564.71 408.75 565.44
  A 2.26 2.10 66.4 0 1 409.62 565.82
  C 413.45 568.61 410.51 573.47 408.44 576.69
  C 397.70 593.37 388.39 607.56 380.81 624.23
  A 0.28 0.28 0.0 0 0 381.18 624.60
  Q 382.28 624.09 383.16 623.16
  Q 399.07 606.24 413.46 590.21
  Q 418.62 584.47 420.63 583.15
  Q 424.01 580.93 425.54 583.96
  C 426.74 586.33 423.68 593.34 422.35 596.37
  Q 417.87 606.57 415.67 613.88
  Q 414.64 617.30 415.26 620.54
  A 1.08 1.08 0.0 0 0 416.85 621.28
  Q 419.59 619.76 421.90 616.88
  Q 434.15 601.56 442.04 584.46
  A 0.93 0.91 41.9 0 0 441.98 583.58
  Q 437.45 576.36 441.73 568.48
  C 443.35 565.51 447.28 563.37 449.45 567.32
  C 451.27 570.64 449.04 578.40 447.81 581.63
  A 0.86 0.86 0.0 0 0 447.98 582.52
  C 453.73 588.61 465.41 586.03 472.33 583.02
  Q 473.45 582.54 475.23 580.13
  C 479.44 574.44 488.67 565.96 495.95 566.87
  C 502.86 567.73 499.92 575.55 497.02 578.89
  Q 489.17 587.90 477.31 590.56
  A 2.80 2.80 0.0 0 0 475.63 591.69
  Q 470.06 599.74 466.59 608.86
  C 461.41 622.49 474.02 618.08 479.79 615.27
  C 492.85 608.91 505.08 600.36 516.07 592.09
  C 517.83 590.77 519.05 589.13 520.20 586.93
  C 524.34 579.02 531.04 571.45 539.30 567.29
  C 542.57 565.65 547.70 565.03 549.61 568.60
  C 551.73 572.57 547.55 577.83 544.35 580.64
  Q 536.85 587.23 528.64 588.74
  A 1.51 1.49 -75.4 0 0 527.75 589.27
  C 524.35 593.42 518.13 603.58 519.38 608.89
  A 2.12 2.12 0.0 0 0 521.69 610.51
  Q 525.70 610.06 528.95 608.43
  C 535.75 605.03 540.98 602.36 547.41 598.10
  Q 568.76 583.98 588.43 568.52
  A 4.27 4.06 86.3 0 0 589.54 567.19
  Q 597.69 551.86 609.09 536.66
  A 0.37 0.37 0.0 0 0 608.77 536.07
  C 592.10 537.44 575.40 539.65 559.61 543.33
  Q 552.39 545.01 546.58 547.56
  C 544.92 548.29 541.95 547.09 541.41 545.18
  C 540.37 541.48 546.84 540.27 550.09 539.63
  Q 568.24 536.03 575.81 534.89
  Q 594.85 532.02 611.43 531.19
  A 2.30 2.29 15.7 0 0 613.20 530.20
  Q 623.69 514.96 640.21 491.95
  Q 642.25 489.09 644.87 486.13
  Q 647.42 483.25 650.59 484.40
  C 654.90 485.97 651.90 492.56 650.13 495.13
  Q 639.44 510.73 627.42 528.90
  A 0.53 0.53 0.0 0 0 627.88 529.73
  C 643.55 529.15 658.95 528.91 675.25 530.98
  Q 681.27 531.75 686.22 533.86
  A 1.17 1.17 0.0 0 1 686.90 535.22
  L 686.90 535.25
  A 0.96 0.96 0.0 0 1 685.75 535.95
  Q 675.47 533.51 672.22 533.27
  Q 648.32 531.45 624.24 534.19
  A 1.26 1.26 0.0 0 0 623.34 534.72
  C 618.43 541.51 613.55 547.91 609.35 554.17
  C 588.27 585.59 568.82 617.91 551.35 651.45
  C 547.86 658.15 545.02 665.00 541.86 671.31
  A 0.27 0.27 0.0 0 0 542.13 671.70
  C 571.28 668.92 603.24 666.78 633.93 664.64
  C 648.80 663.61 660.01 663.22 675.23 662.47
  A 0.45 0.45 0.0 0 0 675.66 662.01
  Q 675.51 642.41 682.01 623.55
  Q 686.49 610.56 691.37 599.63
  Q 694.66 592.27 703.03 577.10
  Q 708.78 566.66 716.21 555.40
  Q 752.87 499.80 804.38 455.62
  C 830.81 432.95 860.46 413.61 893.26 402.52
  Q 906.76 397.95 921.01 397.24
  C 929.85 396.81 939.17 398.90 945.31 405.28
  C 952.70 412.98 951.17 425.39 947.03 435.05
  C 942.90 444.72 937.39 452.03 930.17 461.44
  Q 923.51 470.14 910.58 484.08
  Q 895.18 500.70 859.57 535.27
  A 1.99 1.98 47.1 0 1 856.71 535.16
  L 856.70 535.15
  A 2.22 2.21 46.4 0 1 856.77 532.14
  Q 870.06 518.57 870.19 518.44
  Q 889.16 500.66 911.46 476.74
  Q 913.88 474.14 920.55 466.31
  C 930.64 454.46 941.53 441.10 945.52 426.47
  C 948.54 415.39 943.29 405.88 931.57 403.63
  Q 921.94 401.79 911.24 404.53
  Q 894.39 408.86 879.29 416.79
  Q 848.14 433.15 819.81 456.55
  Q 773.25 495.00 737.49 542.74
  Q 716.02 571.39 700.37 603.11
  Q 694.78 614.43 690.00 628.25
  C 686.45 638.49 683.59 650.28 683.86 661.21
  A 0.55 0.54 88.4 0 0 684.41 661.74
  L 777.71 659.47
  A 1.55 1.54 -64.8 0 0 778.59 659.15
  Q 780.39 657.75 791.00 650.49
  C 805.82 640.34 823.56 627.70 840.56 614.62
  Q 863.90 596.66 890.03 576.60
  A 6.82 6.64 89.2 0 0 891.46 575.09
  Q 905.28 555.09 917.50 538.49
  Q 927.92 524.32 944.33 503.61
  C 949.80 496.71 957.28 501.86 952.16 509.17
  Q 950.28 511.84 945.66 517.94
  Q 907.60 568.25 882.25 605.12
  Z
  M 1032.15 554.69
  Q 1053.91 531.17 1073.81 504.58
  Q 1081.70 494.04 1087.23 482.56
  A 0.54 0.54 0.0 0 0 1086.38 481.93
  Q 1083.43 484.62 1080.58 487.83
  Q 1071.59 497.95 1063.59 508.83
  Q 1054.91 520.65 1054.74 520.97
  Q 1054.57 521.30 1031.74 554.44
  A 0.21 0.21 0.0 0 0 1031.78 554.72
  A 0.27 0.27 0.0 0 0 1032.15 554.69
  Z
  M 1110.17 522.96
  Q 1111.58 519.88 1112.13 519.12
  C 1118.01 510.91 1120.95 506.27 1126.42 498.90
  Q 1129.16 495.21 1132.16 490.24
  A 0.20 0.20 0.0 0 0 1131.84 490.00
  C 1128.39 493.86 1125.77 498.14 1122.07 502.72
  Q 1117.51 508.37 1114.98 512.24
  Q 1112.91 515.40 1101.23 532.00
  C 1096.18 539.17 1092.22 545.56 1087.57 551.06
  Q 1086.93 551.82 1086.58 552.89
  A 0.21 0.21 0.0 0 0 1086.93 553.10
  C 1095.68 543.82 1101.92 535.63 1110.36 525.97
  Q 1127.35 506.54 1140.86 484.04
  A 0.77 0.77 0.0 0 0 1140.66 483.02
  L 1140.64 483.00
  A 0.71 0.71 0.0 0 0 1139.63 483.18
  Q 1126.61 502.90 1113.93 519.66
  Q 1111.78 522.49 1110.44 523.21
  A 0.20 0.19 -1.8 0 1 1110.17 522.96
  Z
  M 545.1152 572.9955
  A 7.75 1.14 -38.5 0 0 538.3403 576.9278
  A 7.75 1.14 -38.5 0 0 532.9848 582.6445
  A 7.75 1.14 -38.5 0 0 539.7597 578.7122
  A 7.75 1.14 -38.5 0 0 545.1152 572.9955
  Z
  M 495.1468 573.8330
  A 8.44 1.18 -38.7 0 0 487.8222 578.1891
  A 8.44 1.18 -38.7 0 0 481.9732 584.3870
  A 8.44 1.18 -38.7 0 0 489.2978 580.0309
  A 8.44 1.18 -38.7 0 0 495.1468 573.8330
  Z
  M 307.28 605.66
  Q 274.62 620.00 243.80 638.57
  Q 212.04 657.71 184.39 682.87
  Q 166.80 698.88 154.02 717.76
  Q 150.99 722.24 148.85 727.60
  C 147.16 731.81 144.80 741.13 151.35 742.23
  Q 158.78 743.48 167.31 741.08
  Q 180.34 737.40 189.71 733.70
  Q 232.78 716.68 273.02 692.75
  Q 294.09 680.21 311.69 665.95
  C 319.92 659.28 328.34 651.35 333.53 641.63
  C 340.10 629.30 333.83 618.06 322.70 611.90
  Q 313.58 606.85 308.55 605.56
  A 1.96 1.94 -49.2 0 0 307.28 605.66
  Z
  M 771.11 663.66
  A 0.18 0.17 -62.6 0 0 771.01 663.34
  Q 738.13 663.90 703.25 665.16
  Q 690.86 665.61 684.79 666.12
  A 0.38 0.38 0.0 0 0 684.44 666.54
  C 685.70 677.86 692.36 684.84 703.31 687.03
  Q 709.60 688.28 714.63 687.61
  C 734.64 684.94 754.10 675.06 771.11 663.66
  Z"
/>
<ellipse fill="#ffffff" cx="0.00" cy="0.00" transform="translate(991.17,549.45) rotate(-56.7)" rx="6.90" ry="3.60"/>
<path fill="#ffffff" d="
  M 651.00 605.01
  A 0.44 0.44 0.0 0 0 650.38 604.91
  Q 643.01 610.18 635.32 613.81
  C 630.23 616.21 618.88 618.55 618.10 609.94
  C 617.10 598.94 634.22 586.51 642.19 580.68
  A 2.29 2.27 72.1 0 0 643.12 578.84
  C 643.12 569.07 647.68 558.28 657.32 555.02
  C 662.00 553.44 665.69 555.89 665.04 561.25
  C 664.29 567.38 654.32 576.05 649.42 579.97
  A 2.20 2.19 69.0 0 0 648.60 581.82
  Q 649.15 590.21 652.79 597.52
  A 0.82 0.82 0.0 0 0 654.00 597.82
  Q 670.38 586.21 686.65 572.00
  A 1.36 1.36 0.0 0 1 688.52 572.07
  L 688.55 572.11
  A 1.26 1.26 0.0 0 1 688.52 573.90
  Q 673.44 588.41 655.67 601.05
  A 0.83 0.82 56.4 0 0 655.45 602.17
  Q 661.41 611.69 670.86 619.31
  A 2.06 2.06 0.0 0 1 671.55 621.49
  L 671.54 621.54
  A 1.08 1.08 0.0 0 1 669.95 622.17
  Q 658.63 615.43 651.00 605.01
  Z
  M 649.78 574.39
  Q 656.44 569.45 660.86 562.09
  Q 661.51 561.00 661.33 559.99
  A 1.36 1.35 -18.8 0 0 659.36 559.03
  Q 650.25 563.82 649.05 573.96
  A 0.46 0.46 0.0 0 0 649.78 574.39
  Z
  M 642.40 586.41
  Q 633.54 593.15 626.88 601.46
  C 625.60 603.07 621.28 610.96 626.10 611.11
  C 633.27 611.33 642.20 605.41 648.23 601.38
  A 0.60 0.59 58.1 0 0 648.41 600.57
  Q 645.06 595.09 643.26 586.73
  A 0.55 0.54 -24.6 0 0 642.40 586.41
  Z"
/>
</svg>
